<svg width="743.602" height="201.401" viewBox="0 0 743.602 201.401" xmlns="http://www.w3.org/2000/svg"><g id="svgGroup" stroke-linecap="round" fill-rule="evenodd" font-size="9pt" stroke="#000" stroke-width="0.25mm" fill="#000" style="stroke:#000;stroke-width:0.25mm;fill:#000"><path d="M 388.4 57.401 L 389.2 57.401 L 391.8 43.601 L 420.6 43.601 L 420.6 153.601 A 61.946 61.946 0 0 1 419.082 167.751 Q 416.605 178.311 410.086 185.661 A 38.157 38.157 0 0 1 406.5 189.201 A 44.055 44.055 0 0 1 392.058 197.323 Q 380.419 201.401 364 201.401 Q 351.6 201.401 341.6 200.001 Q 331.6 198.601 322 195.001 L 322 167.601 A 121.781 121.781 0 0 0 336.456 172.553 A 105.746 105.746 0 0 0 342 173.901 A 91.711 91.711 0 0 0 353.09 175.539 A 123.359 123.359 0 0 0 364 176.001 Q 387 176.001 387 155.001 L 387 152.801 A 64.068 64.068 0 0 1 387.057 150.178 Q 387.131 148.382 387.3 146.301 A 203.38 203.38 0 0 1 387.806 140.919 A 179.977 179.977 0 0 1 388 139.201 L 387 139.201 A 34.599 34.599 0 0 1 378.758 148.513 A 32.474 32.474 0 0 1 374.7 151.201 A 32.124 32.124 0 0 1 364.771 154.707 A 43.793 43.793 0 0 1 356.8 155.401 A 37.464 37.464 0 0 1 341.999 152.568 Q 333.833 149.096 327.88 141.371 A 44.417 44.417 0 0 1 327.3 140.601 A 49.914 49.914 0 0 1 319.945 125.592 Q 317.84 118.777 316.985 110.539 A 115.77 115.77 0 0 1 316.4 98.601 A 108.917 108.917 0 0 1 317.484 82.706 Q 318.676 74.641 321.18 68.064 A 47.446 47.446 0 0 1 327.5 56.401 A 36.584 36.584 0 0 1 340.292 45.417 Q 347.381 41.839 356.214 41.615 A 46.849 46.849 0 0 1 357.4 41.601 Q 367.907 41.601 375.386 45.576 A 28.976 28.976 0 0 1 375.8 45.801 Q 383.4 50.001 388.4 57.401 Z M 711.4 57.401 L 712.2 57.401 L 714.8 43.601 L 743.6 43.601 L 743.6 153.601 A 61.946 61.946 0 0 1 742.082 167.751 Q 739.605 178.311 733.086 185.661 A 38.157 38.157 0 0 1 729.5 189.201 A 44.055 44.055 0 0 1 715.058 197.323 Q 703.419 201.401 687 201.401 Q 674.6 201.401 664.6 200.001 Q 654.6 198.601 645 195.001 L 645 167.601 A 121.781 121.781 0 0 0 659.456 172.553 A 105.746 105.746 0 0 0 665 173.901 A 91.711 91.711 0 0 0 676.09 175.539 A 123.359 123.359 0 0 0 687 176.001 Q 710 176.001 710 155.001 L 710 152.801 A 64.068 64.068 0 0 1 710.057 150.178 Q 710.131 148.382 710.3 146.301 A 203.38 203.38 0 0 1 710.806 140.919 A 179.977 179.977 0 0 1 711 139.201 L 710 139.201 A 34.599 34.599 0 0 1 701.758 148.513 A 32.474 32.474 0 0 1 697.7 151.201 A 32.124 32.124 0 0 1 687.771 154.707 A 43.793 43.793 0 0 1 679.8 155.401 A 37.464 37.464 0 0 1 664.999 152.568 Q 656.833 149.096 650.88 141.371 A 44.417 44.417 0 0 1 650.3 140.601 A 49.914 49.914 0 0 1 642.945 125.592 Q 640.84 118.777 639.985 110.539 A 115.77 115.77 0 0 1 639.4 98.601 A 108.917 108.917 0 0 1 640.484 82.706 Q 641.676 74.641 644.18 68.064 A 47.446 47.446 0 0 1 650.5 56.401 A 36.584 36.584 0 0 1 663.292 45.417 Q 670.381 41.839 679.214 41.615 A 46.849 46.849 0 0 1 680.4 41.601 Q 690.907 41.601 698.386 45.576 A 28.976 28.976 0 0 1 698.8 45.801 Q 706.4 50.001 711.4 57.401 Z M 616.6 81.801 L 616.6 153.401 L 583 153.401 L 583 91.201 A 54.702 54.702 0 0 0 582.665 84.925 Q 581.872 78.079 579.2 74.001 A 12.387 12.387 0 0 0 570.577 68.478 A 19.557 19.557 0 0 0 567.2 68.201 A 25.205 25.205 0 0 0 560.954 68.92 A 15.108 15.108 0 0 0 550.6 77.301 A 36.337 36.337 0 0 0 548.095 84.49 Q 546.2 92.244 546.2 103.401 L 546.2 153.401 L 512.4 153.401 L 512.4 43.601 L 538 43.601 L 542.6 57.801 L 544.2 57.801 Q 549.4 49.801 558.2 45.701 A 44.122 44.122 0 0 1 573.009 41.811 A 53.568 53.568 0 0 1 577.8 41.601 A 51.963 51.963 0 0 1 589.908 42.937 A 36.412 36.412 0 0 1 605.9 51.101 A 28.726 28.726 0 0 1 613.712 62.93 Q 615.427 67.595 616.123 73.373 A 70.508 70.508 0 0 1 616.6 81.801 Z M 33.6 98.201 L 33.6 153.401 L 0 153.401 L 0 10.601 L 83 10.601 L 83 38.201 L 33.6 38.201 L 33.6 70.601 L 79.4 70.601 L 79.4 98.201 L 33.6 98.201 Z M 306.4 42.601 L 303.6 74.201 A 27.904 27.904 0 0 0 302.244 73.937 Q 300.838 73.697 299 73.501 Q 296.2 73.201 292.8 73.201 Q 286.4 73.201 280.1 75.201 Q 273.8 77.201 269.7 82.701 A 18.353 18.353 0 0 0 266.97 88.178 Q 266.167 90.712 265.835 93.787 A 42.973 42.973 0 0 0 265.6 98.401 L 265.6 153.401 L 231.8 153.401 L 231.8 43.601 L 257.2 43.601 L 262.4 61.601 L 263.8 61.601 A 44.184 44.184 0 0 1 274.956 49.012 A 51.82 51.82 0 0 1 277 47.501 Q 285.4 41.601 295.6 41.601 Q 298.2 41.601 301.4 41.901 Q 304.038 42.148 305.724 42.463 A 20.409 20.409 0 0 1 306.4 42.601 Z M 207.04 114.929 A 84.055 84.055 0 0 0 208.6 98.201 A 93.457 93.457 0 0 0 208.576 96.087 Q 208.196 79.262 201.7 67.401 Q 194.8 54.801 182.7 48.201 Q 170.6 41.601 155 41.601 A 71.135 71.135 0 0 0 139.954 43.109 A 48.008 48.008 0 0 0 115.3 56.301 Q 105.558 66.177 102.361 81.696 A 81.851 81.851 0 0 0 100.8 98.201 A 95.499 95.499 0 0 0 100.824 100.342 Q 101.205 117.346 107.7 129.301 Q 114.6 142.001 126.7 148.701 A 51.609 51.609 0 0 0 138.813 153.51 A 61.968 61.968 0 0 0 154.4 155.401 A 70.966 70.966 0 0 0 169.126 153.951 A 47.992 47.992 0 0 0 194.1 140.601 A 44.711 44.711 0 0 0 200.487 132.329 Q 205.042 124.758 207.04 114.929 Z M 449.8 43.601 L 483.4 43.601 L 483.4 153.401 L 449.8 153.401 L 449.8 43.601 Z M 135 98.201 Q 135 113.601 139.6 121.501 A 15.197 15.197 0 0 0 150.668 129.062 A 23.999 23.999 0 0 0 154.8 129.401 A 21.433 21.433 0 0 0 160.734 128.629 A 14.943 14.943 0 0 0 169.8 121.501 A 27.839 27.839 0 0 0 172.419 115.183 Q 174.236 108.878 174.386 99.856 A 99.072 99.072 0 0 0 174.4 98.201 Q 174.4 83.001 169.8 75.301 A 15.205 15.205 0 0 0 158.732 67.931 A 24.607 24.607 0 0 0 154.6 67.601 A 21.957 21.957 0 0 0 148.666 68.353 A 14.888 14.888 0 0 0 139.6 75.301 A 26.67 26.67 0 0 0 136.981 81.481 Q 135.164 87.666 135.014 96.567 A 96.464 96.464 0 0 0 135 98.201 Z M 389.4 102.601 L 389.4 98.401 Q 389.4 83.001 384.9 75.601 A 14.603 14.603 0 0 0 375.829 68.997 Q 373.244 68.3 370.107 68.213 A 32.68 32.68 0 0 0 369.2 68.201 Q 351.513 68.201 350.645 96.231 A 95.931 95.931 0 0 0 350.6 99.201 A 80.329 80.329 0 0 0 350.972 107.222 Q 351.922 116.654 355.3 121.901 A 15.21 15.21 0 0 0 366.376 128.975 A 22.183 22.183 0 0 0 369.6 129.201 Q 376.491 129.201 380.846 126.58 A 13.604 13.604 0 0 0 384.8 123.001 A 18.465 18.465 0 0 0 387.323 118.071 Q 389.4 112.141 389.4 102.601 Z M 712.4 102.601 L 712.4 98.401 Q 712.4 83.001 707.9 75.601 A 14.603 14.603 0 0 0 698.829 68.997 Q 696.244 68.3 693.107 68.213 A 32.68 32.68 0 0 0 692.2 68.201 Q 674.513 68.201 673.645 96.231 A 95.931 95.931 0 0 0 673.6 99.201 A 80.329 80.329 0 0 0 673.972 107.222 Q 674.922 116.654 678.3 121.901 A 15.21 15.21 0 0 0 689.376 128.975 A 22.183 22.183 0 0 0 692.6 129.201 Q 699.491 129.201 703.846 126.58 A 13.604 13.604 0 0 0 707.8 123.001 A 18.465 18.465 0 0 0 710.323 118.071 Q 712.4 112.141 712.4 102.601 Z M 466.8 0.001 Q 474 0.001 479.4 3.201 Q 484.8 6.401 484.8 15.601 A 23.322 23.322 0 0 1 484.419 19.98 Q 483.958 22.385 482.94 24.202 A 9.961 9.961 0 0 1 479.4 27.901 A 22.449 22.449 0 0 1 470.393 30.981 A 28.659 28.659 0 0 1 466.8 31.201 A 29.188 29.188 0 0 1 460.797 30.613 A 21.154 21.154 0 0 1 453.9 27.901 Q 449.43 25.117 448.73 18.279 A 26.335 26.335 0 0 1 448.6 15.601 Q 448.6 6.401 453.9 3.201 A 21.621 21.621 0 0 1 460.979 0.534 A 30.238 30.238 0 0 1 466.8 0.001 Z" vector-effect="non-scaling-stroke"/></g></svg>